<?xml version="1.0" encoding="utf-8"?>
<!-- Generator: Adobe Illustrator 24.3.0, SVG Export Plug-In . SVG Version: 6.00 Build 0)  -->
<svg version="1.1" id="https:_www.flaticon.com_free-icon_muscle_1813361_term_fitness_20gym_page_3_position_28"
	 xmlns="http://www.w3.org/2000/svg" xmlns:xlink="http://www.w3.org/1999/xlink" x="0px" y="0px" viewBox="0 0 99.9 90.2"
	 style="enable-background:new 0 0 99.9 90.2;" xml:space="preserve">
<style type="text/css">
	.st0{fill:#FF7400;}
</style>
<path id="Path_56" class="st0" d="M70.2,85.2l2.6,2.1c3.1-3.8,4.9-8.5,5.3-13.4c0-0.7,0.1-1.3,0.1-2c-0.4-8.5-1.3-17-3-25.3L71.9,47
	c1.6,8.2,2.6,16.4,2.9,24.8c0,0.6,0,1.2-0.1,1.8C74.5,77.8,72.9,81.9,70.2,85.2z"/>
<path id="Path_57" class="st0" d="M98.2,5h-8.3V3.3c0-0.9-0.7-1.7-1.7-1.7c0,0,0,0,0,0h-10c-0.9,0-1.7,0.7-1.7,1.7c0,0,0,0,0,0V15
	h-6.7c0-2.8-2.2-5-5-5l0,0c-0.6,0-1.1,0.1-1.7,0.3V10c0-2.8-2.2-5-5-5c-0.6,0-1.1,0.1-1.7,0.3V5c0-2.8-2.3-5-5-5
	c-2.2,0-4.2,1.5-4.8,3.7c-2.6-1-5.5,0.2-6.5,2.7c-0.2,0.6-0.4,1.2-0.4,1.9V15H26.4V3.3c0-0.9-0.7-1.7-1.7-1.7c0,0,0,0,0,0h-10
	c-0.9,0-1.7,0.7-1.7,1.7c0,0,0,0,0,0V5H4.7C3.8,5,3.1,5.8,3.1,6.7v30.1c0,0.9,0.7,1.7,1.7,1.7h8.3v1.7c0,0.9,0.7,1.7,1.7,1.7h10
	c0.9,0,1.7-0.7,1.7-1.7V28.4H32c0.8,2.3,2.4,4.3,4.5,5.5l6.6,3.8v20.2c-5.3-1.9-11-2.9-16.7-2.8C7.4,55.1,0.3,65.4,0,65.9l2.8,1.9
	c0.3-0.4,6.5-9.3,23.7-9.3c17.2,0,23.7,7.7,23.7,7.7l2.6-2.1c-1.8-2-3.9-3.5-6.3-4.7V36.7c0-0.6-0.3-1.2-0.8-1.5L38.2,31
	c-2.1-1.2-3.4-3.5-3.4-6c0-3,2.1-5.7,5-6.4v4.8h3.3v-15c0-0.9,0.7-1.7,1.6-1.7s1.7,0.7,1.7,1.6c0,0,0,0.1,0,0.1v5h3.3V5
	c0-0.9,0.7-1.7,1.6-1.7s1.7,0.7,1.7,1.6c0,0,0,0.1,0,0.1v10h3.3v-5c0-0.9,0.7-1.7,1.6-1.7s1.7,0.7,1.7,1.6c0,0,0,0.1,0,0.1v6.7h3.3
	V15c0-0.9,0.7-1.7,1.6-1.7c0.9,0,1.7,0.7,1.7,1.6c0,0,0,0.1,0,0.1v14.6L63.3,36c-0.2,0.3-0.2,0.7-0.1,1.1c0.1,0.2,5,23.3,5,34.7
	c0,0.4,0,0.9,0,1.3c-0.8,7.9-7.4,13.8-15.3,13.7H1.4v3.3h51.4c9.7,0.1,17.8-7.2,18.7-16.8c0-0.5,0.1-1,0.1-1.5
	c0-10.8-4.1-31.1-4.9-34.8l3.1-6.2c0.1-0.2,0.2-0.5,0.2-0.7v-1.7h6.7v11.7c0,0.9,0.7,1.7,1.7,1.7h10c0.9,0,1.7-0.7,1.7-1.7v-1.7h8.3
	c0.9,0,1.7-0.7,1.7-1.7V6.7C99.9,5.8,99.1,5,98.2,5z M6.4,35.1v-5h3.3v-3.3H6.4v-3.3h3.3V20H6.4v-3.3h3.3v-3.3H6.4v-5h6.7v26.7H6.4z
	 M23.1,38.4h-6.7V5h6.7L23.1,38.4z M26.4,18.4H34c-1.6,1.8-2.6,4.2-2.6,6.7h-5V18.4z M69.8,25v-6.7h6.7V25H69.8z M86.5,38.4h-6.7V5
	h6.7L86.5,38.4z M89.9,35.1V8.3h6.7v5h-3.3v3.3h3.3V20h-3.3v3.3h3.3v3.3h-3.3v3.3h3.3v5L89.9,35.1z"/>
<path id="Path_58" class="st0" d="M42.3,69l1.7-2.9c-5.4-3-11.4-4.5-17.6-4.3c-3.6,0-7.1,0.5-10.5,1.6l1.1,3.2
	c3.1-1,6.3-1.5,9.5-1.5C32,64.9,37.4,66.3,42.3,69z"/>
<path id="Path_59" class="st0" d="M12.3,64.9c-1.2,0.6-2.4,1.3-3.6,2.1l1.9,2.7c1-0.7,2-1.3,3.1-1.9L12.3,64.9z"/>
</svg>
