<?xml version="1.0" encoding="utf-8"?>
<!-- Generator: Adobe Illustrator 24.3.0, SVG Export Plug-In . SVG Version: 6.00 Build 0)  -->
<svg version="1.1" id="https:_www.flaticon.com_free-icon_stationary-bike_883386_term_fitness_20gym_page_3_position_1"
	 xmlns="http://www.w3.org/2000/svg" xmlns:xlink="http://www.w3.org/1999/xlink" x="0px" y="0px" viewBox="0 0 90.2 90.2"
	 style="enable-background:new 0 0 90.2 90.2;" xml:space="preserve">
<style type="text/css">
	.st0{fill:#FF7400;}
</style>
<g id="Group_2" transform="translate(46.841 69.029)">
	<g id="Group_1">
		<path id="Path_60" class="st0" d="M1.8,0C0.8,0,0,0.8,0,1.8s0.8,1.8,1.8,1.8s1.8-0.8,1.8-1.8v0C3.5,0.8,2.7,0,1.8,0z"/>
	</g>
</g>
<g id="Group_4">
	<g id="Group_3">
		<path id="Path_61" class="st0" d="M84.9,79.6L84.9,79.6c3.2-2.5,5.2-6.4,5.3-10.6c0-6-3.8-11.3-9.4-13.3l0,0l-15.1-5.1l5.5-28.4h2
			c4.9,0,8.8-3.9,8.8-8.8V5.3c0-2.9-2.4-5.3-5.3-5.3c-2.9,0-5.3,2.4-5.3,5.3v6.3h-8.8c-2.9,0-5.3,2.4-5.3,5.3c0,2.1,1.2,4,3.2,4.8
			l-4.9,25.4l-25.1-8.5c-1.5-0.5-3-0.9-4.5-1.1l-3.1-11.8h5.8c3.6,0,6.5-2.9,6.5-6.5c0-3.2-2.3-5.9-5.4-6.4C8.3,9.2,9.4,9.3,8.2,9.3
			C3.7,9.3,0,13,0,17.5s3.7,8.2,8.2,8.2l0,0H12l3.4,12.9C3.4,42.8-2.9,55.9,1.3,67.8c1.7,4.9,5,9,9.4,11.8H5.3C2.4,79.6,0,82,0,84.9
			c0,2.9,2.4,5.3,5.3,5.3h79.6c2.9,0,5.3-2.4,5.3-5.3C90.2,82,87.8,79.6,84.9,79.6L84.9,79.6z M62.7,15.1h10.6c1,0,1.8-0.8,1.8-1.8
			v0V5.3c0-1,0.8-1.8,1.8-1.8s1.8,0.8,1.8,1.8v8.1c0,2.9-2.4,5.3-5.3,5.3H62.8c-0.1,0-0.1,0-0.2,0c-1,0-1.7-0.9-1.7-1.8
			C61,15.9,61.7,15.1,62.7,15.1L62.7,15.1z M64.1,22.2h3.6l-5.3,27.3L59,48.3L64.1,22.2z M8.2,22.2c-2.6,0-4.7-2.1-4.7-4.7
			s2.1-4.7,4.7-4.7c0.7,0-0.2-0.1,21,3.4c1.6,0.3,2.7,1.8,2.5,3.5c-0.2,1.4-1.5,2.5-3,2.5L8.2,22.2z M22.3,37.3
			c-1.2,0-2.4,0.2-3.6,0.4l-3.1-12h3.7L22.3,37.3z M3.5,60.2c0-10.7,8.7-19.4,19.4-19.4c2.2,0,4.4,0.4,6.5,1.1l0,0l50.2,17.1
			c4.2,1.5,7,5.5,7,10c0,5.5-5.5,10.4-11.6,10.4l-54.6,0C10.7,78.2,3.5,70,3.5,60.2z M84.9,86.6H5.3c-1,0-1.8-0.8-1.8-1.8
			s0.8-1.8,1.8-1.8h79.6c1,0,1.8,0.8,1.8,1.8S85.8,86.6,84.9,86.6z"/>
	</g>
</g>
<g id="Group_6" transform="translate(57.407 58.463)">
	<g id="Group_5">
		<path id="Path_62" class="st0" d="M8.8,0C3.9,0,0,3.9,0,8.8s3.9,8.8,8.8,8.8s8.8-3.9,8.8-8.8v0C17.6,3.9,13.7,0,8.8,0z M8.8,14.1
			c-2.9,0-5.3-2.4-5.3-5.3c0-2.9,2.4-5.3,5.3-5.3c2.9,0,5.3,2.4,5.3,5.3c0,0,0,0,0,0C14.1,11.7,11.7,14.1,8.8,14.1z"/>
	</g>
</g>
<g id="Group_8" transform="translate(10.566 47.898)">
	<g id="Group_7">
		<path id="Path_63" class="st0" d="M31,21.1h-7.4l-1.4-1.4c4.1-5.5,3-13.2-2.5-17.2S6.5-0.5,2.5,4.9c-4.1,5.5-3,13.2,2.5,17.2
			c4.4,3.3,10.4,3.3,14.8,0l1.9,1.9c0.3,0.3,0.8,0.5,1.2,0.5H31c1,0,1.8-0.8,1.8-1.8C32.8,21.9,32,21.1,31,21.1L31,21.1z M19.7,17.2
			l-6.1-6.1c-0.7-0.7-1.8-0.7-2.5,0c-0.7,0.7-0.7,1.8,0,2.4l6.1,6.1c-4.1,2.7-9.5,1.6-12.2-2.5C2.3,13.1,3.4,7.7,7.5,5
			S17,3.4,19.7,7.5C21.6,10.4,21.6,14.2,19.7,17.2z"/>
	</g>
</g>
</svg>
