<?xml version="1.0" encoding="utf-8"?>
<!-- Generator: Adobe Illustrator 24.3.0, SVG Export Plug-In . SVG Version: 6.00 Build 0)  -->
<svg version="1.1" id="https:_www.flaticon.com_free-icon_bench_2151537_term_fitness_20gym_page_3_position_42"
	 xmlns="http://www.w3.org/2000/svg" xmlns:xlink="http://www.w3.org/1999/xlink" x="0px" y="0px" viewBox="0 0 97.8 90.2"
	 style="enable-background:new 0 0 97.8 90.2;" xml:space="preserve">
<style type="text/css">
	.st0{fill:#FF7900;}
</style>
<path id="Path_47" class="st0" d="M80.6,31.6c0.3,0.3,0.6,0.5,1,0.5h6.1c0.4,0,0.8-0.2,1-0.5l2.6-3.1c0.2-0.2,0.3-0.5,0.3-0.9v-8
	h4.8c0.7,0,1.3-0.6,1.3-1.3v-4.6c0-0.7-0.6-1.3-1.3-1.3h-4.8v-8c0-0.3-0.1-0.6-0.3-0.9l-2.6-3.1c-0.3-0.3-0.6-0.5-1-0.5h-6.1
	c-0.4,0-0.8,0.2-1,0.5l-2.6,3.1c-0.2,0.2-0.3,0.5-0.3,0.9v8H20v-8c0-0.3-0.1-0.6-0.3-0.9l-2.6-3.1c-0.3-0.3-0.6-0.5-1-0.5H10
	C9.6,0,9.2,0.2,9,0.5L6.4,3.5C6.2,3.8,6.1,4.1,6.1,4.4v8H1.3C0.6,12.4,0,13,0,13.8v4.6c0,0.7,0.6,1.3,1.3,1.3h4.8v8
	c0,0.3,0.1,0.6,0.3,0.9L9,31.6c0.3,0.3,0.6,0.5,1,0.5h6.1c0.4,0,0.8-0.2,1-0.5l0.2-0.2v48.7h-13C2,80.1,0,82,0,84.5v4.3
	c0,0.7,0.6,1.3,1.3,1.3c0,0,0,0,0,0h95.1c0.7,0,1.3-0.6,1.3-1.3v-4.3c0-2.4-2-4.4-4.4-4.4h-13V31.4L80.6,31.6z M95.1,15.1V17h-3.4
	v-1.9L95.1,15.1z M80.4,4.9l1.9-2.2h4.9L89,4.9v22.3l-1.9,2.2h-4.9l-1.9-2.2L80.4,4.9z M77.8,15.1V17H20v-1.9L77.8,15.1z M56.5,80.1
	v-8.4h9.3c0.7,0,1.3-0.6,1.3-1.3v-3.8c0-3.1-2.4-5.6-5.4-5.9V39.2c0-4-3.2-7.2-7.2-7.2H43.3c-4,0-7.2,3.2-7.2,7.2v21.4
	c-3.1,0.3-5.4,2.8-5.4,5.9v3.8c0,0.7,0.6,1.3,1.3,1.3c0,0,0,0,0,0h9.3v8.4H25.8V19.7H72v60.4H56.5z M59.1,60.6H38.8V39.2
	c0-2.5,2-4.6,4.6-4.6h11.2c2.5,0,4.6,2,4.6,4.6V60.6z M36.6,63.3h24.6c1.8,0,3.3,1.5,3.3,3.3V69H33.3v-2.5
	C33.3,64.8,34.8,63.3,36.6,63.3L36.6,63.3z M44,71.7h9.9v8.4H44L44,71.7z M2.7,17v-1.9h3.4V17H2.7z M15.5,29.4h-4.9l-1.9-2.2V4.9
	l1.9-2.2h4.9l1.9,2.2v22.3L15.5,29.4z M20,19.7h3.1v60.4H20V19.7z M95.1,84.5v3H2.7v-3c0-0.9,0.8-1.7,1.7-1.7h89
	C94.4,82.8,95.1,83.5,95.1,84.5L95.1,84.5z M74.7,80.1V19.7h3.1v60.4H74.7z"/>
<path id="Path_48" class="st0" d="M45.5,41.6h6.8c0.7,0,1.3-0.6,1.3-1.3c0-0.7-0.6-1.3-1.3-1.3c0,0,0,0,0,0h-6.8
	c-0.7,0-1.3,0.6-1.3,1.3C44.2,41,44.8,41.6,45.5,41.6z"/>
<path id="Path_49" class="st0" d="M53.8,45.3H44c-0.7,0-1.3,0.6-1.3,1.3c0,0.7,0.6,1.3,1.3,1.3h9.8c0.7,0,1.3-0.6,1.3-1.3
	C55.1,45.9,54.5,45.3,53.8,45.3L53.8,45.3z"/>
<path id="Path_50" class="st0" d="M52.3,51.6h-6.8c-0.7,0-1.3,0.6-1.3,1.3c0,0.7,0.6,1.3,1.3,1.3h6.8c0.7,0,1.3-0.6,1.3-1.3
	C53.6,52.2,53,51.6,52.3,51.6z"/>
</svg>
