<?xml version="1.0" encoding="utf-8"?>
<!-- Generator: Adobe Illustrator 24.3.0, SVG Export Plug-In . SVG Version: 6.00 Build 0)  -->
<svg version="1.1" id="https:_www.flaticon.com_free-icon_exercise_1934493_term_fitness_20gym_page_3_position_49"
	 xmlns="http://www.w3.org/2000/svg" xmlns:xlink="http://www.w3.org/1999/xlink" x="0px" y="0px" viewBox="0 0 90.2 90.2"
	 style="enable-background:new 0 0 90.2 90.2;" xml:space="preserve">
<style type="text/css">
	.st0{fill:#FF7400;}
</style>
<path id="Path_51" class="st0" d="M34.8,69.9l0.2,2.9c0.4,0,0.9-0.1,1.3-0.1h1.5v-2.9h-1.5C35.8,69.8,35.3,69.8,34.8,69.9z"/>
<path id="Path_52" class="st0" d="M19.2,80.8l2.6,1.2c2-4.4,5.9-7.6,10.5-8.8l-0.7-2.8C26.1,71.8,21.5,75.6,19.2,80.8z"/>
<path id="Path_53" class="st0" d="M71.3,64.7v-6.5H80v-1.5c0-4-3.3-7.3-7.3-7.3h-1.2c0.3-0.3,0.6-0.6,0.8-1c1.5-2.1,2.1-4.7,1.6-7.3
	l-2.4-13c-0.9-4.6-4.1-8.4-8.6-9.9c4.4-3.5,5.2-9.9,1.7-14.3c-3.5-4.4-9.9-5.2-14.3-1.7s-5.2,9.9-1.7,14.3c0.3,0.4,0.6,0.7,0.9,1
	H37.8V16c0-2.4-1.9-4.4-4.3-4.4c-2.4,0-4.4,1.9-4.4,4.3c0,0,0,0.1,0,0.1v1.5h-0.7c-2.8,0-5.1,2.3-5,5.2c0,2.8,2.3,5,5,5h0.7v10.2
	H17.5l-6.2-23.3H7.8C3.5,14.5,0,18,0,22.3c0,0.8,0.1,1.5,0.3,2.3l5.5,18l8.6,34.6c-1.9,3.6-2.9,7.5-2.9,11.6v1.5h78.5v-1.5
	C90.1,77.3,82.3,67.4,71.3,64.7L71.3,64.7z M68.3,64.2c-1-0.1-1.9-0.2-2.9-0.2v-5.8h2.9V64.2z M55.8,58.2h6.7V64h-8L55.8,58.2z
	 M72.7,52.3c1.8,0,3.5,1.2,4.1,2.9H56.4l0.6-2.9H72.7L72.7,52.3z M49.4,10.2c0-4,3.3-7.3,7.3-7.3S64,6.2,64,10.2s-3.3,7.3-7.3,7.3
	C52.7,17.4,49.4,14.2,49.4,10.2z M32,16c0-0.8,0.7-1.5,1.5-1.5c0.8,0,1.5,0.7,1.5,1.5v1.5H32V16z M26.2,22.5c0-1.2,1-2.2,2.2-2.2
	h30.3c4.9,0,9.1,3.5,10,8.3l2.4,13c0.3,1.8-0.1,3.6-1.1,5.1c-1.3,1.7-3.4,2.7-5.6,2.7h-7.4c-1.4,0-2.6,1-2.8,2.3l-3.4,15.8
	c-0.3,1.3-1.5,2.3-2.8,2.3c-0.2,0-0.4,0-0.6-0.1c-1.6-0.3-2.6-1.9-2.2-3.5c0,0,0,0,0,0l3.4-15.8c0.9-4,4.4-6.9,8.5-6.9l1.8,0
	l-3.1-15.4c-0.4-2-2.2-3.5-4.3-3.5H28.3C27.1,24.7,26.2,23.7,26.2,22.5C26.2,22.5,26.2,22.5,26.2,22.5L26.2,22.5z M42.7,64h-6.3
	c-4.4,0-8.7,1.2-12.5,3.5l-5.2-20.9h12c4,0,7.3-3.3,7.3-7.3V27.6h13.6c0.7,0,1.3,0.5,1.4,1.2l2.4,12.1c-4.7,0.8-8.5,4.4-9.6,9.1
	L42.7,64z M29.1,40.7c1.6,0,2.9-1.3,2.9-2.9V27.6h2.9v11.6c0,2.4-2,4.4-4.4,4.4h-16v-2.9H29.1z M2.9,22.3c0-2.7,2.2-4.9,4.9-4.9h1.3
	l5.4,20.4h-2.9v2.9H8.3l-5.2-17C3,23.3,2.9,22.8,2.9,22.3L2.9,22.3z M9.1,43.6h2.5v2.9h4l5.7,22.6c-1.7,1.3-3.3,2.9-4.6,4.6
	L9.1,43.6z M14.6,87.3c0.8-11.5,10.3-20.3,21.8-20.4h5.8c0,2.7,1.9,5.1,4.6,5.7c3.1,0.7,6.2-1.3,6.9-4.5l0.3-1.2h11.5
	c11.5,0,21,8.9,21.8,20.4H14.6z"/>
<path id="Path_54" class="st0" d="M56.7,75.6H45.1c-2.4,0-4.3,2-4.3,4.4c0,2.4,1.9,4.3,4.3,4.3h11.6c2.4,0,4.3-2,4.3-4.4
	C61,77.6,59.1,75.7,56.7,75.6z M56.7,81.4H45.1c-0.8,0-1.5-0.7-1.5-1.5s0.7-1.5,1.5-1.5h11.6c0.8,0,1.5,0.7,1.5,1.5
	S57.5,81.4,56.7,81.4z"/>
<path id="Path_55" class="st0" d="M72.7,72.7c-3.2,0-5.8,2.6-5.8,5.8s2.6,5.8,5.8,5.8c3.2,0,5.8-2.6,5.8-5.8
	C78.5,75.3,75.9,72.7,72.7,72.7z M72.7,81.4c-1.6,0-2.9-1.3-2.9-2.9c0-1.6,1.3-2.9,2.9-2.9c1.6,0,2.9,1.3,2.9,2.9
	C75.6,80.1,74.3,81.4,72.7,81.4z"/>
</svg>
